# xmcd CD database file generated by Grip 2.95
# 
# Track frame offsets:
#       150
#       22607
#       37250
#       48435
#       70042
#       103862
#       116837
#       143810
#       159965
#       186227
# 
# Disc length: 2687 seconds
# 
# Revision: 3
# Processed by: cddbd v1.4PL0 Copyright (c) Steve Scherf et al.
# Submitted via: Grip 2.95
# 
DISCID=840a7d0a
DTITLE=Sandra Hall - Miss Red Riding Hood
DYEAR=1900
DGENRE=
TTITLE0=Jump Into My Fire
TTITLE1=I Demand A Lotta Love
TTITLE2=Talk is Cheap
TTITLE3=I'm Not a Size Six
TTITLE4=Travelin The Blues
TTITLE5=I Done Got Used To Doing Without
TTITLE6=Perfect Lie
TTITLE7=Custom-Tailored Man
TTITLE8=Miss Red Riding Hood
TTITLE9=New Way With The Blues
EXTD=
EXTT0=
EXTT1=
EXTT2=
EXTT3=
EXTT4=
EXTT5=
EXTT6=
EXTT7=
EXTT8=
EXTT9=
PLAYORDER=
